<svg width="12" height="12" viewBox="0 0 12 12" fill="none" xmlns="http://www.w3.org/2000/svg">
<g clip-path="url(#clip0_1_285)">
<rect width="12" height="12" fill="#5531A7"/>
<path d="M5.19373 2.72895C3.96414 2.96893 2.9733 3.95729 2.73084 5.18316C2.27315 7.49634 4.35998 9.22072 5.93222 8.97703C6.44187 8.89786 6.69174 8.30163 6.45795 7.8427C6.1722 7.28111 6.58041 6.6255 7.21129 6.6255H8.19718C8.64003 6.6255 8.99876 6.25935 9 5.81774C8.99382 3.86823 7.21995 2.33435 5.19373 2.72895ZM3.85405 6.6255C3.63509 6.6255 3.4582 6.44861 3.4582 6.22966C3.4582 6.01071 3.63509 5.83382 3.85405 5.83382C4.073 5.83382 4.24989 6.01071 4.24989 6.22966C4.24989 6.44861 4.073 6.6255 3.85405 6.6255ZM4.24989 5.04214C4.03094 5.04214 3.85405 4.86525 3.85405 4.6463C3.85405 4.42735 4.03094 4.25046 4.24989 4.25046C4.46884 4.25046 4.64573 4.42735 4.64573 4.6463C4.64573 4.86525 4.46884 5.04214 4.24989 5.04214ZM5.83326 4.25046C5.61431 4.25046 5.43742 4.07357 5.43742 3.85462C5.43742 3.63567 5.61431 3.45878 5.83326 3.45878C6.05221 3.45878 6.2291 3.63567 6.2291 3.85462C6.2291 4.07357 6.05221 4.25046 5.83326 4.25046ZM7.41663 5.04214C7.19768 5.04214 7.02079 4.86525 7.02079 4.6463C7.02079 4.42735 7.19768 4.25046 7.41663 4.25046C7.63558 4.25046 7.81247 4.42735 7.81247 4.6463C7.81247 4.86525 7.63558 5.04214 7.41663 5.04214Z" fill="#C696FC"/>
</g>
<defs>
<clipPath id="clip0_1_285">
<rect width="12" height="12" rx="6" fill="white"/>
</clipPath>
</defs>
</svg>
