<svg width="16" height="16" viewBox="0 0 16 16" fill="none" xmlns="http://www.w3.org/2000/svg">
<g clip-path="url(#clip0_1_60)">
<rect width="16" height="16" rx="8" fill="#2E2E48"/>
<path d="M8.00001 11.75C7.47373 11.3011 6.98592 10.809 6.54168 10.2788C5.87501 9.48251 5.08334 8.29667 5.08334 7.16667C5.08275 5.98648 5.79345 4.92225 6.88379 4.47059C7.97413 4.01892 9.2292 4.26886 10.0633 5.10376C10.6119 5.64984 10.9191 6.39267 10.9167 7.16667C10.9167 8.29667 10.125 9.48251 9.45834 10.2788C9.0141 10.809 8.52629 11.3011 8.00001 11.75ZM8.00001 5.91667C7.55343 5.91667 7.14077 6.15492 6.91748 6.54167C6.69419 6.92842 6.69419 7.40492 6.91748 7.79167C7.14077 8.17842 7.55343 8.41667 8.00001 8.41667C8.69037 8.41667 9.25001 7.85703 9.25001 7.16667C9.25001 6.47632 8.69037 5.91667 8.00001 5.91667Z" fill="#D9DFE8"/>
</g>
<defs>
<clipPath id="clip0_1_60">
<rect width="16" height="16" rx="8" fill="white"/>
</clipPath>
</defs>
</svg>
