<svg width="4" height="5" viewBox="0 0 4 5" fill="none" xmlns="http://www.w3.org/2000/svg">
<path d="M2 4.75C1.68423 4.48066 1.39155 4.18538 1.125 3.86725C0.725001 3.3895 0.25 2.678 0.25 2C0.249646 1.29188 0.676062 0.653345 1.33027 0.382347C1.98447 0.111348 2.73752 0.261307 3.238 0.762247C3.56712 1.0899 3.75148 1.53559 3.75001 2C3.75001 2.678 3.275 3.3895 2.875 3.86725C2.60845 4.18538 2.31577 4.48066 2 4.75ZM2 1.25C1.73205 1.25 1.48446 1.39295 1.35048 1.625C1.21651 1.85705 1.21651 2.14295 1.35048 2.375C1.48446 2.60705 1.73205 2.75 2 2.75C2.41421 2.75 2.75 2.41421 2.75 2C2.75 1.58578 2.41421 1.25 2 1.25Z" fill="#79819A"/>
</svg>
